<?xml version="1.0" encoding="UTF-8"?>
<svg version="1.1" xmlns="http://www.w3.org/2000/svg" width="500" height="500">
<path d="M0 0 C165 0 330 0 500 0 C500 165 500 330 500 500 C335 500 170 500 0 500 C0 335 0 170 0 0 Z " fill="#F6F6F1" transform="translate(0,0)"/>
<path d="M0 0 C8.64154852 -0.06994615 17.28297597 -0.12303522 25.92473888 -0.15543652 C29.93877958 -0.17099858 33.9526246 -0.19206052 37.96655273 -0.22631836 C41.85046078 -0.25925372 45.7341823 -0.27692384 49.61821938 -0.28463173 C51.08957156 -0.29011466 52.56091519 -0.3008186 54.03218651 -0.31719017 C70.65319496 -0.49454606 85.49011295 2.08134026 97.95703125 13.75390625 C105.90224996 22.48908934 109.41954843 33.01038476 109.21484375 44.76953125 C108.05990402 56.75990556 102.76733057 66.02769185 94 74 C93.34 74.66 92.68 75.32 92 76 C92.6290625 76.32871094 93.258125 76.65742188 93.90625 76.99609375 C104.76107945 83.02837096 111.11734854 90.92857592 115.25 102.5 C118.05829405 115.30177285 116.23263157 128.46399451 109.56640625 139.70703125 C100.88331312 152.41769376 89.04641775 159.85291044 74 163 C72.13668854 163.08595017 70.27056145 163.11772649 68.40527344 163.11352539 C67.28441345 163.11344986 66.16355347 163.11337433 65.00872803 163.11329651 C63.80444153 163.10813522 62.60015503 163.10297394 61.359375 163.09765625 C59.50339691 163.09553383 59.50339691 163.09553383 57.60992432 163.09336853 C54.32855059 163.0887211 51.04722627 163.07974347 47.76586914 163.06866455 C44.41422989 163.0584152 41.06258852 163.05394859 37.7109375 163.04882812 C31.14060569 163.03780025 24.57030689 163.02106296 18 163 C18.18946701 163.61491302 18.37893402 164.22982605 18.57414246 164.8633728 C22.33011212 177.07352937 25.99667533 189.28768109 29.3125 201.625 C29.97255069 204.07625209 30.63520201 206.52680578 31.30078125 208.9765625 C31.58091064 210.01893066 31.86104004 211.06129883 32.1496582 212.13525391 C32.95258966 214.84027766 33.93509061 217.38966516 35 220 C54.09731184 220.07004974 73.19459764 220.12296837 92.29201126 220.15543652 C101.1590733 220.17091206 110.02605557 220.19201469 118.89306641 220.22631836 C126.62064534 220.2561997 134.34816651 220.27557 142.07580161 220.28226548 C146.16836685 220.2861799 150.2607668 220.29539351 154.35327911 220.31719017 C158.20443341 220.3375354 162.05535415 220.34383783 165.90655708 220.33932304 C167.32071514 220.34014913 168.73488092 220.34612662 170.14899254 220.35761642 C172.07870218 220.37252791 174.00853683 220.36716924 175.93829346 220.36076355 C177.01863483 220.36352893 178.09897621 220.36629431 179.21205521 220.36914349 C182.39116893 219.94820648 183.7309477 219.23431212 186 217 C187.31589493 213.82495257 187.31589493 213.82495257 188.21875 210.0859375 C188.402099 209.40292572 188.585448 208.71991394 188.77435303 208.01620483 C189.3636643 205.8059274 189.93168801 203.59075941 190.5 201.375 C190.9007459 199.86326892 191.30276512 198.3518748 191.70605469 196.84082031 C193.34548394 190.65490154 194.93771812 184.46536281 196.296875 178.2109375 C196.46638672 177.43186035 196.63589844 176.6527832 196.81054688 175.85009766 C197.21435367 173.92034987 197.58535193 171.98381315 197.953125 170.046875 C199.77628732 164.74065632 203.54830899 161.94023794 208.4375 159.5 C212.44392622 157.38959154 215.63454036 155.02028429 219 152 C217.20833524 161.81389404 214.63639763 171.41416694 212.125 181.0625 C211.25030181 184.42779298 210.37779019 187.79363981 209.5078125 191.16015625 C209.29519272 191.98163147 209.08257294 192.80310669 208.86351013 193.6494751 C207.24835311 199.93132669 205.73966496 206.23439909 204.32070923 212.56349182 C202.37845005 221.07455894 199.14155672 227.68754256 192 233 C187.11459378 235.40426457 183.59991522 236.37456734 178.07295227 236.37181091 C177.41234163 236.37563548 176.75173099 236.37946004 176.07110184 236.3834005 C173.87701442 236.39262108 171.68356881 236.38073586 169.48950195 236.36889648 C167.90877014 236.37136654 166.32803996 236.37520703 164.74731445 236.38031006 C161.35335634 236.38862677 157.95956613 236.38785884 154.56560707 236.38012505 C149.19968048 236.36851992 143.83396898 236.38072177 138.46806335 236.39674377 C125.14542927 236.43289423 111.82280076 236.43916426 98.50012207 236.43664551 C88.13532866 236.43493539 77.77071139 236.44201113 67.40596741 236.47662407 C62.0705722 236.49343587 56.7356065 236.49160919 51.40021288 236.47580135 C48.08506456 236.47001415 44.77012106 236.48072611 41.45500946 236.49604797 C39.91669247 236.49978118 38.37834136 236.496646 36.84005547 236.48617744 C34.74154934 236.47284618 32.64454204 236.48397925 30.5460968 236.50120544 C29.37160634 236.50099616 28.19711588 236.50078688 26.9870348 236.50057125 C23.38251282 237.10324314 22.21135558 238.14902286 20 241 C19.37777707 242.97735077 19.37777707 242.97735077 19.5 245 C19.4896875 245.66 19.479375 246.32 19.46875 247 C20.25664877 249.96620713 21.60981007 251.09762467 24 253 C27.19144842 253.58982701 27.19144842 253.58982701 30.82530212 253.47860718 C31.51122879 253.48187503 32.19715546 253.48514289 32.90386778 253.48850977 C35.2018754 253.49475871 37.49873212 253.4725886 39.79663086 253.45068359 C41.44425944 253.44959517 43.09189011 253.4503476 44.73951721 253.45280457 C48.28747076 253.45459382 51.83510928 253.44422361 55.38300896 253.42472458 C60.99260992 253.39486354 66.60190548 253.3974073 72.21156311 253.40542603 C86.1448939 253.42053256 100.07813861 253.39875216 114.01141357 253.35760498 C124.83927984 253.32568153 135.6667942 253.30638403 146.4947024 253.32911742 C152.07173123 253.33938359 157.64778117 253.32199859 163.22467983 253.28397727 C166.69397758 253.26645566 170.16289394 253.27381406 173.63219261 253.28812599 C175.24106476 253.28970822 176.84998494 253.28099217 178.45873642 253.26122475 C180.65611192 253.23566921 182.85035442 253.24700859 185.04771423 253.26742554 C186.89134253 253.262398 186.89134253 253.262398 188.77221584 253.25726891 C193.36487711 254.31406582 194.44296727 256.09610229 197 260 C197 263.21002276 196.70405138 265.02551829 194.8203125 267.6328125 C191.38867404 270.21022336 187.4919527 269.69845587 183.35546875 269.625 C178.55749725 268.73131497 176.36171277 266.38936633 173.03125 262.98046875 C168.39447327 258.45961143 163.29284492 257.82305694 157 257.5625 C148.52563727 257.79730602 143.07664465 261.36798788 137 267 C136.67 267.66 136.34 268.32 136 269 C127.53300762 269.16266869 119.0666751 269.28680705 110.59850311 269.3626852 C106.66569061 269.39911599 102.7339522 269.44847336 98.80175781 269.52807617 C95.00207577 269.60450919 91.20342223 269.64606657 87.4030304 269.6641407 C85.95811277 269.67700904 84.5132473 269.70213935 83.06877136 269.7401104 C70.34596461 270.06105146 70.34596461 270.06105146 65.24804688 265.57446289 C64.16201098 264.38603125 63.07891359 263.19490133 62 262 C55.64454006 258.26149415 49.29845542 257.16657116 42 258 C36.63841808 259.51107402 32.86376491 261.96975924 28.875 265.8125 C25.4529119 268.97657352 25.4529119 268.97657352 21.375 269.1875 C14.70215968 266.83964878 9.89506391 262.8483408 6 257 C2.86816162 250.37270155 1.84566823 244.00314099 4.1875 236.9375 C7.07442551 229.99545121 11.48176042 226.3230241 18 223 C15.93153394 213.45323359 13.68180829 204.02368075 10.7265625 194.70703125 C7.955698 185.91477507 5.30961513 177.08758487 2.6875 168.25 C2.45044342 167.45240265 2.21338684 166.6548053 1.96914673 165.83303833 C-1.52236026 154.08131127 -4.9362916 142.31009448 -8.28344727 130.51635742 C-12.05812676 117.23187971 -16.03882059 104.01116013 -20.140625 90.82421875 C-21.13373826 87.56048745 -22.06580079 84.28102523 -23 81 C-23.97348389 80.99589111 -24.94696777 80.99178223 -25.94995117 80.98754883 C-29.57532079 80.96571215 -33.19961202 80.91137784 -36.82446289 80.84741211 C-38.39076369 80.82427118 -39.95721922 80.80984552 -41.52368164 80.80444336 C-43.78108703 80.79512412 -46.03607221 80.75407767 -48.29296875 80.70703125 C-49.33701118 80.71293022 -49.33701118 80.71293022 -50.40214539 80.71894836 C-54.24673767 80.60457781 -55.90552534 80.07543726 -58.9465332 77.6472168 C-61 75 -61 75 -61.5625 71.9375 C-60.84217961 68.17582687 -60.11156166 67.24079764 -57 65 C-53.78375084 64.39842772 -50.60803804 64.43962139 -47.34375 64.46875 C-45.93482483 64.46300964 -45.93482483 64.46300964 -44.49743652 64.45715332 C-42.51374234 64.45443424 -40.5300123 64.46179516 -38.54638672 64.47851562 C-35.51057984 64.49992539 -32.47713954 64.47871393 -29.44140625 64.453125 C-27.51301561 64.45576828 -25.58462644 64.46089325 -23.65625 64.46875 C-22.29518127 64.45660461 -22.29518127 64.45660461 -20.90661621 64.44421387 C-14.67115904 64.53696196 -14.67115904 64.53696196 -11.50341797 66.72241211 C-9.8986381 69.15355719 -9.050594 71.16368992 -8.2890625 73.97265625 C-8.01707031 74.94460937 -7.74507812 75.9165625 -7.46484375 76.91796875 C-7.18769531 77.95566406 -6.91054687 78.99335938 -6.625 80.0625 C-6.01482286 82.25180512 -5.40282327 84.44060308 -4.7890625 86.62890625 C-4.48774414 87.71316895 -4.18642578 88.79743164 -3.87597656 89.91455078 C-2.6761669 94.14063622 -1.351849 98.32056386 0 102.5 C2.40052267 109.98936908 4.66362104 117.51516209 6.875 125.0625 C7.18566406 126.11695313 7.49632812 127.17140625 7.81640625 128.2578125 C8.10128906 129.23621094 8.38617188 130.21460938 8.6796875 131.22265625 C8.93476074 132.09672119 9.18983398 132.97078613 9.45263672 133.87133789 C10 136 10 136 10 138 C17.24219743 137.96171759 24.48389934 137.90203415 31.72569752 137.81609726 C35.08952914 137.776829 38.4531071 137.74454097 41.81713867 137.72900391 C45.69752261 137.70744222 49.57694056 137.66072075 53.45703125 137.609375 C54.64706253 137.60814636 55.83709381 137.60691772 57.06318665 137.60565186 C65.81760909 137.45427299 73.90051639 136.22725305 80.9375 130.6875 C86.64315192 123.25286265 88.02930826 118.43950994 87 109 C85.81185682 103.44314573 83.45714135 99.56571308 79 96 C73.82154044 92.94656568 69.02695935 90.93243089 62.96582031 90.79467773 C62.17449707 90.77449585 61.38317383 90.75431396 60.56787109 90.73352051 C59.74625488 90.71704468 58.92463867 90.70056885 58.078125 90.68359375 C57.3154834 90.66494263 56.5528418 90.6462915 55.76708984 90.6270752 C52.92817364 90.5589649 50.08907365 90.49869679 47.25 90.4375 C40.8975 90.293125 34.545 90.14875 28 90 C28 103.53 28 117.06 28 131 C23.71 131 19.42 131 15 131 C12.13109907 124.87098437 10.38358252 118.58589058 8.625 112.0625 C8.0573595 109.96932564 7.48699813 107.87688745 6.9140625 105.78515625 C6.63375687 104.74863419 6.35345123 103.71211212 6.06465149 102.6441803 C5.36499621 100.24934029 4.5902694 97.87494671 3.73649597 95.53062439 C-0.15286485 84.60938875 -0.66332216 74.79688279 -0.48828125 63.28125 C-0.47892761 61.44324721 -0.47182361 59.60523175 -0.46684265 57.76721191 C-0.44797317 52.98634943 -0.39905189 48.20627608 -0.34332275 43.42572021 C-0.29169115 38.52480741 -0.26923594 33.62376405 -0.24414062 28.72265625 C-0.19090832 19.14809539 -0.10584674 9.57411393 0 0 Z " fill="#F75D1D" transform="translate(152,95)"/>
<path d="M0 0 C8.67610292 -0.04656595 17.3521621 -0.08199148 26.02836323 -0.10362434 C30.05809796 -0.11401277 34.0877465 -0.12808041 38.11743164 -0.15087891 C42.01428753 -0.17278517 45.91106109 -0.18460567 49.80797386 -0.18975449 C51.28654461 -0.19341861 52.76511142 -0.20057262 54.24364662 -0.21146011 C71.81074888 -0.33554492 84.64715926 2.09866417 97.76953125 14.51171875 C105.95985185 23.6487314 108.49361952 34.02868354 108.25 46.01171875 C107.40018526 56.16966053 102.68866364 64.47525341 96 72 C94.36643049 73.37368345 92.7074998 74.71937515 91 76 C91.969375 76.495 92.93875 76.99 93.9375 77.5 C104.65509993 83.74831737 110.78847108 92.12735253 114.375 104 C116.83236557 116.11130174 115.01353255 128.77861482 108.75390625 139.3671875 C100.29088416 152.07114494 89.04763019 158.85622172 74.33483887 162.53774643 C66.88542089 164.01258913 59.17972963 163.59892173 51.625 163.48828125 C49.71973611 163.47892886 47.81446001 163.47182426 45.90917969 163.46684265 C40.95077953 163.44796345 35.99313898 163.39903292 31.03503418 163.34332275 C25.95314808 163.29171288 20.87113643 163.26924046 15.7890625 163.24414062 C5.8590455 163.190891 -4.07041352 163.10581667 -14 163 C-11.48433322 160.46017864 -8.94463802 158.08671771 -6.1875 155.8125 C1.87572736 148.7384418 6.43618915 141.07890256 10 131 C10.37125 130.00226563 10.37125 130.00226563 10.75 128.984375 C14.6823068 116.42283939 12.18060433 101.88944858 6.375 90.375 C3.02384061 84.56124621 -1.33018028 79.78397087 -6 75 C-4.27465566 71.46185146 -2.3204219 68.09312665 -0.31640625 64.70703125 C3.25198626 57.3690609 4.52655796 50.76489722 4.4375 42.625 C4.43266602 41.22604492 4.43266602 41.22604492 4.42773438 39.79882812 C4.30907287 33.95168023 3.46925781 29.58053825 0.93920898 24.27587891 C-0.41351924 19.55768102 -0.21058208 15.03607461 -0.125 10.15625 C-0.11597656 9.17946289 -0.10695313 8.20267578 -0.09765625 7.19628906 C-0.07419397 4.79727107 -0.04136625 2.39876497 0 0 Z " fill="#F75D1D" transform="translate(264,95)"/>
<path d="M0 0 C1.40892517 -0.00574036 1.40892517 -0.00574036 2.84631348 -0.01159668 C4.83000766 -0.01431576 6.8137377 -0.00695484 8.79736328 0.00976562 C11.83317016 0.03117539 14.86661046 0.00996393 17.90234375 -0.015625 C19.83073439 -0.01298172 21.75912356 -0.00785675 23.6875 0 C24.59487915 -0.00809692 25.5022583 -0.01619385 26.43713379 -0.02453613 C32.67259096 0.06821196 32.67259096 0.06821196 35.84033203 2.25366211 C37.4451119 4.68480719 38.293156 6.69493992 39.0546875 9.50390625 C39.32667969 10.47585937 39.59867188 11.4478125 39.87890625 12.44921875 C40.15605469 13.48691406 40.43320313 14.52460938 40.71875 15.59375 C41.32892714 17.78305512 41.94092673 19.97185308 42.5546875 22.16015625 C42.85600586 23.24441895 43.15732422 24.32868164 43.46777344 25.44580078 C44.6675831 29.67188622 45.991901 33.85181386 47.34375 38.03125 C49.74427267 45.52061908 52.00737104 53.04641209 54.21875 60.59375 C54.52941406 61.64820313 54.84007812 62.70265625 55.16015625 63.7890625 C55.58748047 65.25666016 55.58748047 65.25666016 56.0234375 66.75390625 C56.27851074 67.62797119 56.53358398 68.50203613 56.79638672 69.40258789 C57.34375 71.53125 57.34375 71.53125 57.34375 73.53125 C64.58594743 73.49296759 71.82764934 73.43328415 79.06944752 73.34734726 C82.43327914 73.308079 85.7968571 73.27579097 89.16088867 73.26025391 C93.04127261 73.23869222 96.92069056 73.19197075 100.80078125 73.140625 C101.99081253 73.13939636 103.18084381 73.13816772 104.40693665 73.13690186 C113.16135909 72.98552299 121.24426639 71.75850305 128.28125 66.21875 C133.98690192 58.78411265 135.37305826 53.97075994 134.34375 44.53125 C133.15560682 38.97439573 130.80089135 35.09696308 126.34375 31.53125 C121.16529044 28.47781568 116.37070935 26.46368089 110.30957031 26.32592773 C109.51824707 26.30574585 108.72692383 26.28556396 107.91162109 26.26477051 C107.09000488 26.24829468 106.26838867 26.23181885 105.421875 26.21484375 C104.6592334 26.19619263 103.8965918 26.1775415 103.11083984 26.1583252 C100.27192364 26.0902149 97.43282365 26.02994679 94.59375 25.96875 C88.24125 25.824375 81.88875 25.68 75.34375 25.53125 C75.34375 39.06125 75.34375 52.59125 75.34375 66.53125 C71.05375 66.53125 66.76375 66.53125 62.34375 66.53125 C61.32247674 60.65451146 61.21367034 54.96048204 61.24609375 49.00390625 C61.2475087 48.01498886 61.24892365 47.02607147 61.25038147 46.00718689 C61.25594912 42.86934296 61.2684956 39.73157213 61.28125 36.59375 C61.28626918 34.45768333 61.29083136 32.32161553 61.29492188 30.18554688 C61.30590794 24.96742325 61.32261364 19.74934185 61.34375 14.53125 C69.03008183 14.48039678 76.71636999 14.44545204 84.40283203 14.42138672 C87.01580425 14.41135052 89.62876531 14.39771864 92.24169922 14.38037109 C96.00491092 14.35601837 99.76797367 14.34474279 103.53125 14.3359375 C105.27390137 14.32045364 105.27390137 14.32045364 107.05175781 14.30465698 C119.3895964 14.30296347 130.48686008 17.28112288 139.8125 25.79296875 C142.63889201 29.0015005 144.55113725 32.67075438 146.34375 36.53125 C146.71113281 37.26730469 147.07851562 38.00335938 147.45703125 38.76171875 C149.86868853 46.29416374 149.77902253 57.32264338 146.78125 64.65625 C141.10428155 74.90297674 132.14473362 82.02134284 121.09301758 85.57714844 C114.81832905 87.1078493 108.41775955 86.77694548 102 86.7265625 C100.62138068 86.72282576 99.24275868 86.71998191 97.86413574 86.71798706 C94.26054366 86.71040258 90.65711645 86.69079962 87.05358887 86.6685791 C83.36647775 86.64800802 79.67933963 86.63896142 75.9921875 86.62890625 C68.77596705 86.60754802 61.55988175 86.57347592 54.34375 86.53125 C58.28862441 100.6838425 62.2581547 114.82812858 66.35180664 128.93847656 C67.04413972 131.32569476 67.73406384 133.71360095 68.42382812 136.1015625 C70.75066647 144.14061047 73.12363159 152.15642389 75.65551758 160.13378906 C76.34375 162.53125 76.34375 162.53125 76.34375 164.53125 C96.15442235 164.49405654 115.96490257 164.43415635 135.77542114 164.34734726 C144.97414435 164.30756607 154.17278212 164.27516891 163.37158203 164.26025391 C171.39081931 164.24723261 179.40986854 164.22025578 187.4289999 164.17663693 C191.67369983 164.15403281 195.9181679 164.13833869 200.16293335 164.13936615 C204.16199311 164.14011339 208.16054054 164.12213741 212.1594677 164.09008217 C213.62351074 164.0815953 215.08761132 164.07982502 216.55166817 164.08544731 C224.52391654 164.1119738 230.60312087 164.02632545 237.34375 159.53125 C240.63962708 155.59676292 242.06056146 151.9133824 243.28125 146.96875 C243.44109375 146.33453125 243.6009375 145.7003125 243.765625 145.046875 C244.30671487 142.87838507 244.82720534 140.70571408 245.34375 138.53125 C245.5411377 137.70512207 245.73852539 136.87899414 245.94189453 136.02783203 C246.79310924 132.459918 247.64070114 128.89116698 248.48364258 125.32128906 C250.29205095 117.68067657 252.19653558 110.08450427 254.34375 102.53125 C254.55257813 101.72300781 254.76140625 100.91476562 254.9765625 100.08203125 C256.74836233 94.19472168 260.61993144 91.12180093 265.34375 87.53125 C266.6547624 91.4642872 265.7765311 93.4287858 264.68359375 97.41796875 C264.49854782 98.10385574 264.31350189 98.78974274 264.12284851 99.49641418 C263.51636418 101.73926991 262.89870887 103.97889341 262.28125 106.21875 C261.44053644 109.31546966 260.6053533 112.41367586 259.76953125 115.51171875 C259.56060242 116.28276947 259.35167358 117.05382019 259.13641357 117.84823608 C257.07182578 125.4849833 255.15466974 133.15589625 253.28491211 140.8425293 C252.65485768 143.41016033 252.00600428 145.9717469 251.34375 148.53125 C251.11945313 149.41562744 250.89515625 150.30000488 250.6640625 151.21118164 C249.26372366 156.34781858 247.81453624 160.00728353 244.09375 163.96875 C243.36671875 164.77183594 242.6396875 165.57492187 241.890625 166.40234375 C236.77191401 170.68102088 231.98532455 171.90633684 225.41670227 171.90306091 C224.75609163 171.90688548 224.09548099 171.91071004 223.41485184 171.9146505 C221.22076442 171.92387108 219.02731881 171.91198586 216.83325195 171.90014648 C215.25252014 171.90261654 213.67178996 171.90645703 212.09106445 171.91156006 C208.69710634 171.91987677 205.30331613 171.91910884 201.90935707 171.91137505 C196.54343048 171.89976992 191.17771898 171.91197177 185.81181335 171.92799377 C172.48917927 171.96414423 159.16655076 171.97041426 145.84387207 171.96789551 C135.47907866 171.96618539 125.11446139 171.97326113 114.74971741 172.00787407 C109.4143222 172.02468587 104.0793565 172.02285919 98.74396288 172.00705135 C95.42881456 172.00126415 92.11387106 172.01197611 88.79875946 172.02729797 C87.26044247 172.03103118 85.72209136 172.027896 84.18380547 172.01742744 C82.08529934 172.00409618 79.98829204 172.01522925 77.8898468 172.03245544 C76.71535634 172.03224616 75.54086588 172.03203688 74.3307848 172.03182125 C70.72626282 172.63449314 69.55510558 173.68027286 67.34375 176.53125 C66.72152707 178.50860077 66.72152707 178.50860077 66.84375 180.53125 C66.8334375 181.19125 66.823125 181.85125 66.8125 182.53125 C67.60039877 185.49745713 68.95356007 186.62887467 71.34375 188.53125 C74.53519842 189.12107701 74.53519842 189.12107701 78.16905212 189.00985718 C78.85497879 189.01312503 79.54090546 189.01639289 80.24761778 189.01975977 C82.5456254 189.02600871 84.84248212 189.0038386 87.14038086 188.98193359 C88.78800944 188.98084517 90.43564011 188.9815976 92.08326721 188.98405457 C95.63122076 188.98584382 99.17885928 188.97547361 102.72675896 188.95597458 C108.33635992 188.92611354 113.94565548 188.9286573 119.55531311 188.93667603 C133.4886439 188.95178256 147.42188861 188.93000216 161.35516357 188.88885498 C172.18302984 188.85693153 183.0105442 188.83763403 193.8384524 188.86036742 C199.41548123 188.87063359 204.99153117 188.85324859 210.56842983 188.81522727 C214.03772758 188.79770566 217.50664394 188.80506406 220.97594261 188.81937599 C222.58481476 188.82095822 224.19373494 188.81224217 225.80248642 188.79247475 C227.99986192 188.76691921 230.19410442 188.77825859 232.39146423 188.79867554 C234.23509253 188.793648 234.23509253 188.793648 236.11596584 188.78851891 C240.70862711 189.84531582 241.78671727 191.62735229 244.34375 195.53125 C244.34375 198.74127276 244.04780138 200.55676829 242.1640625 203.1640625 C238.73242404 205.74147336 234.8357027 205.22970587 230.69921875 205.15625 C225.90124725 204.26256497 223.70546277 201.92061633 220.375 198.51171875 C215.73822327 193.99086143 210.63659492 193.35430694 204.34375 193.09375 C195.86938727 193.32855602 190.42039465 196.89923788 184.34375 202.53125 C184.01375 203.19125 183.68375 203.85125 183.34375 204.53125 C174.87675762 204.69391869 166.4104251 204.81805705 157.94225311 204.8939352 C154.00944061 204.93036599 150.0777022 204.97972336 146.14550781 205.05932617 C142.34582577 205.13575919 138.54717223 205.17731657 134.7467804 205.1953907 C133.30186277 205.20825904 131.8569973 205.23338935 130.41252136 205.2713604 C117.68971461 205.59230146 117.68971461 205.59230146 112.59179688 201.10571289 C111.50576098 199.91728125 110.42266359 198.72615133 109.34375 197.53125 C102.98829006 193.79274415 96.64220542 192.69782116 89.34375 193.53125 C83.98216808 195.04232402 80.20751491 197.50100924 76.21875 201.34375 C72.7966619 204.50782352 72.7966619 204.50782352 68.71875 204.71875 C62.04590968 202.37089878 57.23881391 198.3795908 53.34375 192.53125 C50.21191162 185.90395155 49.18941823 179.53439099 51.53125 172.46875 C54.41817551 165.52670121 58.82551042 161.8542741 65.34375 158.53125 C63.27528394 148.98448359 61.02555829 139.55493075 58.0703125 130.23828125 C55.299448 121.44602507 52.65336513 112.61883487 50.03125 103.78125 C49.79419342 102.98365265 49.55713684 102.1860553 49.31289673 101.36428833 C45.82138974 89.61256127 42.4074584 77.84134448 39.06030273 66.04760742 C35.28562324 52.76312971 31.30492941 39.54241013 27.203125 26.35546875 C26.21001174 23.09173745 25.27794921 19.81227523 24.34375 16.53125 C23.37026611 16.52714111 22.39678223 16.52303223 21.39379883 16.51879883 C17.76842921 16.49696215 14.14413798 16.44262784 10.51928711 16.37866211 C8.95298631 16.35552118 7.38653078 16.34109552 5.82006836 16.33569336 C3.56266297 16.32637412 1.30767779 16.28532767 -0.94921875 16.23828125 C-1.99326118 16.24418022 -1.99326118 16.24418022 -3.05839539 16.25019836 C-6.90298767 16.13582781 -8.56177534 15.60668726 -11.6027832 13.1784668 C-13.65625 10.53125 -13.65625 10.53125 -14.21875 7.46875 C-12.6976096 -0.47498318 -6.74440326 -0.06018313 0 0 Z " fill="#D7440A" transform="translate(104.65625,159.46875)"/>
<path d="M0 0 C7.64967407 -0.07642165 15.29924869 -0.12875549 22.94921875 -0.16479492 C25.54854003 -0.17982831 28.14783617 -0.20026046 30.74707031 -0.22631836 C34.49550605 -0.26294101 38.24360472 -0.27978152 41.9921875 -0.29296875 C43.14363251 -0.30845261 44.29507751 -0.32393646 45.48141479 -0.33988953 C57.89452066 -0.34244565 68.88473872 2.89947011 77.88671875 11.8828125 C85.42479492 21.26268562 87.27732359 31.13366385 86 43 C83.54999955 52.51250173 78.15971584 60.49604073 70 66 C62.47660532 69.5345417 55.12172866 72.1219415 46.76660156 72.12939453 C45.24042206 72.13412277 45.24042206 72.13412277 43.68341064 72.13894653 C42.59679138 72.1369223 41.51017212 72.13489807 40.390625 72.1328125 C38.70679718 72.13424759 38.70679718 72.13424759 36.98895264 72.13571167 C34.62202905 72.13639107 32.25510358 72.1345535 29.88818359 72.13037109 C26.24963246 72.12499946 22.61120365 72.13033447 18.97265625 72.13671875 C16.67447889 72.13605832 14.37630161 72.13477789 12.078125 72.1328125 C10.98340881 72.13483673 9.88869263 72.13686096 8.76080322 72.13894653 C7.75595886 72.13579437 6.7511145 72.13264221 5.71582031 72.12939453 C4.82711243 72.12859894 3.93840454 72.12780334 3.02276611 72.12698364 C1 72 1 72 0 71 C-0.09432985 68.79132169 -0.11742431 66.57958479 -0.11352539 64.36889648 C-0.11367142 63.67624695 -0.11381744 62.98359741 -0.1139679 62.2699585 C-0.11326874 59.97030554 -0.10547628 57.67073263 -0.09765625 55.37109375 C-0.09579208 53.78068588 -0.09436817 52.19027743 -0.09336853 50.59986877 C-0.08954329 46.4060407 -0.07971295 42.21224705 -0.06866455 38.01843262 C-0.05845057 33.74211086 -0.05387094 29.46578356 -0.04882812 25.18945312 C-0.03809069 16.79295292 -0.02101419 8.39648074 0 0 Z " fill="#D64409" transform="translate(278,174)"/>
<path d="M0 0 C1.21171875 -0.02578125 2.4234375 -0.0515625 3.671875 -0.078125 C9.50085632 0.4564104 13.25341211 2.70815097 17 7.125 C21.96207666 13.1605502 22.95496816 17.49535023 22.25 25.25 C20.6 28.55 18.95 31.85 17.25 35.25 C42.66 34.92 68.07 34.59 94.25 34.25 C92.27 30.29 92.27 30.29 90.25 26.25 C89.20253476 20.47088143 89.36906309 14.95858616 92.375 9.8125 C95.54055951 5.49582794 99.09210256 1.96929915 104.25 0.25 C112.38236991 -0.57578049 118.88299309 -0.66516902 125.4765625 4.53125 C130.27968743 9.18626095 132.05832286 13.37484294 132.5 20 C132.4353677 25.76304649 130.41156668 30.50764997 127.25 35.25 C128.79559022 36.79559022 130.29777777 36.43055083 132.44921875 36.49609375 C133.32263916 36.52767578 134.19605957 36.55925781 135.09594727 36.59179688 C136.50251587 36.63916992 136.50251587 36.63916992 137.9375 36.6875 C147.80742262 37.08313511 157.66365493 37.67525024 167.25 40.25 C166.92 41.24 166.59 42.23 166.25 43.25 C159.18111505 44.82846082 152.21721796 45.75621309 145 46.3125 C143.62714844 46.42948242 143.62714844 46.42948242 142.2265625 46.54882812 C123.1537211 48.08737066 104.07073696 48.4117351 84.9453125 48.41796875 C82.56476829 48.42119711 80.18422426 48.42456224 77.80368042 48.42805481 C72.84372499 48.43399231 67.88378685 48.43590038 62.92382812 48.43530273 C57.90914286 48.43522165 52.89454929 48.44214527 47.87988281 48.45581055 C20.9366154 48.52816012 -5.89096011 48.59217564 -32.75 46.25 C-34.35686928 46.11469376 -34.35686928 46.11469376 -35.99620056 45.97665405 C-52.89122545 44.55001162 -52.89122545 44.55001162 -57.75 42.25 C-57.42 41.59 -57.09 40.93 -56.75 40.25 C-46.94047284 37.27210783 -36.86597219 37.04577282 -26.6875 36.6875 C-25.53572266 36.64431641 -24.38394531 36.60113281 -23.19726562 36.55664062 C-20.38160509 36.45149148 -17.56587024 36.34934607 -14.75 36.25 C-15.09933594 35.63511719 -15.44867188 35.02023437 -15.80859375 34.38671875 C-16.26363281 33.57847656 -16.71867187 32.77023437 -17.1875 31.9375 C-17.63996094 31.13699219 -18.09242188 30.33648437 -18.55859375 29.51171875 C-21.35811906 24.19721005 -21.49109455 19.03549349 -19.8125 13.3125 C-16.39101292 4.80860977 -8.73298086 0.11054406 0 0 Z " fill="#E2D9D2" transform="translate(198.75,358.75)"/>
<path d="M0 0 C8.394375 -0.061875 16.78875 -0.12375 25.4375 -0.1875 C28.07032959 -0.21481201 30.70315918 -0.24212402 33.41577148 -0.27026367 C35.52587425 -0.27903371 37.63598214 -0.28667642 39.74609375 -0.29296875 C41.36118835 -0.3159906 41.36118835 -0.3159906 43.00891113 -0.33947754 C49.58503293 -0.34173815 54.92824844 0.46357545 61 3 C61.7225145 3.28990311 62.44502899 3.57980621 63.18943787 3.87849426 C70.22172544 6.81777526 74.84267557 12.40318184 78.4375 19 C81.3508589 26.30873081 81.3181417 35.50898625 79.1171875 43.0078125 C74.38862424 53.24781374 66.41868206 59.08238148 56 63 C48.95484244 64.83440638 42.21377703 65.27408703 34.9609375 65.1953125 C33.61962769 65.19229126 33.61962769 65.19229126 32.2512207 65.18920898 C28.95909381 65.1788643 25.66704092 65.15094328 22.375 65.125 C11.299375 65.063125 11.299375 65.063125 0 65 C0 43.55 0 22.1 0 0 Z " fill="#D7450B" transform="translate(166,107)"/>
<path d="M0 0 C8.353125 -0.0825 16.70625 -0.165 25.3125 -0.25 C27.92712158 -0.28641602 30.54174316 -0.32283203 33.2355957 -0.36035156 C35.34064924 -0.37204938 37.44571192 -0.3822386 39.55078125 -0.390625 C40.61727905 -0.41108887 41.68377686 -0.43155273 42.78259277 -0.45263672 C53.46289034 -0.45753313 63.98155762 2.63548885 72 10 C77.25075945 17.08576171 79.20602313 22.90670707 79.3125 31.6875 C79.35600586 32.85442383 79.35600586 32.85442383 79.40039062 34.04492188 C79.48319603 41.68212802 76.70184867 47.84451273 71.58984375 53.5625 C57.55554901 66.25198517 40.94143603 65.51880896 23.25 65.25 C15.5775 65.1675 7.905 65.085 0 65 C0 43.55 0 22.1 0 0 Z " fill="#D6460C" transform="translate(278,107)"/>
<path d="M0 0 C6.22875 -0.0825 12.4575 -0.165 18.875 -0.25 C21.79255127 -0.30462402 21.79255127 -0.30462402 24.76904297 -0.36035156 C34.96596196 -0.47180668 43.65856452 -0.41249018 51.875 6.375 C57.96550575 13.89856593 59.92444487 19.39604497 59 29 C57.16438298 35.50446899 53.98031814 40.6562997 48.04296875 44.15234375 C41.66794538 47.4758717 36.48999211 48.14365453 29.296875 48.09765625 C28.5538916 48.09664917 27.8109082 48.09564209 27.04541016 48.09460449 C24.28025765 48.08938776 21.51512721 48.0754265 18.75 48.0625 C12.5625 48.041875 6.375 48.02125 0 48 C0 32.16 0 16.32 0 0 Z " fill="#F7F4EF" transform="translate(292,185)"/>
<path d="M0 0 C6.125625 -0.061875 12.25125 -0.12375 18.5625 -0.1875 C20.48263916 -0.21481201 22.40277832 -0.24212402 24.38110352 -0.27026367 C25.92203138 -0.27903466 27.46296626 -0.28667714 29.00390625 -0.29296875 C29.78858276 -0.30831665 30.57325928 -0.32366455 31.38171387 -0.33947754 C37.36944562 -0.34229441 42.2302885 0.6291719 46.92578125 4.6484375 C51.31058769 10.1078303 53.54982325 14.38969247 53.3828125 21.5234375 C52.48154708 27.35407294 49.63376117 32.36623883 45.5 36.5 C39.92459145 39.84524513 35.56588241 40.27726317 29.19921875 40.1953125 C28.45724243 40.19329834 27.71526611 40.19128418 26.95080566 40.18920898 C24.19630697 40.17879606 21.44189685 40.15087363 18.6875 40.125 C12.520625 40.08375 6.35375 40.0425 0 40 C0 26.8 0 13.6 0 0 Z " fill="#F5F4EF" transform="translate(180,120)"/>
<path d="M0 0 C8.6934375 -0.0928125 8.6934375 -0.0928125 17.5625 -0.1875 C19.3782251 -0.21481201 21.1939502 -0.24212402 23.06469727 -0.27026367 C24.52359352 -0.27903554 25.98249719 -0.28667782 27.44140625 -0.29296875 C28.18289917 -0.30831665 28.92439209 -0.32366455 29.68835449 -0.33947754 C36.13726552 -0.34268011 40.75695779 1.06282718 45.75 5.375 C50.71569943 11.168316 51.59752134 15.20731581 51.41796875 22.765625 C50.63904107 28.79321492 47.79935162 32.29061596 43.5 36.375 C38.25308293 39.78549609 33.80939328 40.27933047 27.63671875 40.1953125 C26.93405884 40.19329834 26.23139893 40.19128418 25.50744629 40.18920898 C22.90073043 40.17880181 20.29410816 40.15087943 17.6875 40.125 C8.9321875 40.063125 8.9321875 40.063125 0 40 C0 26.8 0 13.6 0 0 Z " fill="#F6F4EF" transform="translate(293,120)"/>
<path d="M0 0 C21.68764717 -0.14011695 43.37521979 -0.245945 65.06322765 -0.31087303 C75.13320731 -0.34182064 85.20290585 -0.38401845 95.27270508 -0.45263672 C104.04882328 -0.51241103 112.82473791 -0.55114257 121.60105401 -0.56453097 C126.24883585 -0.57235812 130.8960353 -0.59077209 135.5436306 -0.63438034 C139.91777761 -0.67509051 144.29110207 -0.68767247 148.66542053 -0.67864609 C150.27108543 -0.68029747 151.87677767 -0.69224266 153.48227882 -0.71523285 C155.67545015 -0.74509914 157.86551823 -0.73791205 160.0587616 -0.7215271 C161.89912129 -0.72982324 161.89912129 -0.72982324 163.77665997 -0.73828697 C168.36751458 0.31322113 169.44441039 2.09875537 172 6 C172 9.21002276 171.70405138 11.02551829 169.8203125 13.6328125 C166.38867404 16.21022336 162.4919527 15.69845587 158.35546875 15.625 C153.55749725 14.73131497 151.36171277 12.38936633 148.03125 8.98046875 C143.39447327 4.45961143 138.29284492 3.82305694 132 3.5625 C123.52563727 3.79730602 118.07664465 7.36798788 112 13 C111.67 13.66 111.34 14.32 111 15 C102.53300762 15.16266869 94.0666751 15.28680705 85.59850311 15.3626852 C81.66569061 15.39911599 77.7339522 15.44847336 73.80175781 15.52807617 C70.00207577 15.60450919 66.20342223 15.64606657 62.4030304 15.6641407 C60.95811277 15.67700904 59.5132473 15.70213935 58.06877136 15.7401104 C45.34596461 16.06105146 45.34596461 16.06105146 40.24804688 11.57446289 C39.16201098 10.38603125 38.07891359 9.19490133 37 8 C30.69237836 4.28963433 24.25669402 3.0943834 17 4 C14.57132302 4.88986725 12.33234769 5.92401432 10.04296875 7.125 C8 8 8 8 4 8 C4 5.69 4 3.38 4 1 C2.68 0.67 1.36 0.34 0 0 Z " fill="#F85717" transform="translate(177,349)"/>
<path d="M0 0 C1.21171875 -0.02578125 2.4234375 -0.0515625 3.671875 -0.078125 C9.50085632 0.4564104 13.25341211 2.70815097 17 7.125 C21.22932882 12.26928296 22.74683503 16.24810676 22.55859375 22.9140625 C21.68495916 29.52714459 18.13102214 33.86854774 13.12890625 38.0234375 C6.97866498 42.03835592 0.38266548 42.24064798 -6.75 41.25 C-12.73011573 38.43859339 -17.37886928 33.40360065 -20 27.375 C-21.54841038 20.92329007 -21.23148714 14.95877394 -17.75 9.25 C-12.0717652 3.25977428 -8.3223338 0.105346 0 0 Z " fill="#4C4E53" transform="translate(198.75,358.75)"/>
<path d="M0 0 C5.18731224 3.31123431 8.66766112 6.99337154 10.96875 12.74609375 C11.75465641 19.4262982 11.44987009 24.89608596 8.21875 30.87109375 C4.00442773 35.7337733 -0.06223275 39.51496351 -6.63671875 40.14453125 C-14.08711191 40.37162412 -19.1332776 39.96124172 -24.78125 34.87109375 C-30.24987994 29.11464118 -31.30294974 23.62783271 -31.16015625 15.87890625 C-30.39768314 9.82628464 -27.1289447 5.86956509 -22.65625 1.93359375 C-16.41648667 -2.54275821 -7.06738375 -2.86864312 0 0 Z " fill="#4C4E53" transform="translate(319.78125,360.12890625)"/>
<path d="M0 0 C1.15757812 -0.00257813 2.31515625 -0.00515625 3.5078125 -0.0078125 C4.72210938 -0.00007813 5.93640625 0.00765625 7.1875 0.015625 C8.40179688 0.00789063 9.61609375 0.00015625 10.8671875 -0.0078125 C12.60355469 -0.00394531 12.60355469 -0.00394531 14.375 0 C15.44105469 0.00225586 16.50710938 0.00451172 17.60546875 0.00683594 C20.1875 0.265625 20.1875 0.265625 22.1875 2.265625 C22.38723733 4.96697823 22.46731573 7.56359711 22.453125 10.265625 C22.45503845 11.05710937 22.4569519 11.84859375 22.45892334 12.6640625 C22.46028518 14.3385449 22.45658882 16.01303785 22.44824219 17.6875 C22.4375424 20.25544881 22.44813725 22.82269803 22.4609375 25.390625 C22.4596159 27.01562655 22.45705351 28.64062766 22.453125 30.265625 C22.45717346 31.03648437 22.46122192 31.80734375 22.46539307 32.6015625 C22.41742132 38.03570368 22.41742132 38.03570368 20.1875 40.265625 C17.60546875 40.52441406 17.60546875 40.52441406 14.375 40.53125 C13.21742188 40.53382813 12.05984375 40.53640625 10.8671875 40.5390625 C9.65289062 40.53132813 8.43859375 40.52359375 7.1875 40.515625 C5.97320312 40.52335937 4.75890625 40.53109375 3.5078125 40.5390625 C1.77144531 40.53519531 1.77144531 40.53519531 0 40.53125 C-1.59908203 40.52786621 -1.59908203 40.52786621 -3.23046875 40.52441406 C-5.8125 40.265625 -5.8125 40.265625 -7.8125 38.265625 C-8.01223733 35.56427177 -8.09231573 32.96765289 -8.078125 30.265625 C-8.08003845 29.47414063 -8.0819519 28.68265625 -8.08392334 27.8671875 C-8.08528518 26.1927051 -8.08158882 24.51821215 -8.07324219 22.84375 C-8.0625424 20.27580119 -8.07313725 17.70855197 -8.0859375 15.140625 C-8.0846159 13.51562345 -8.08205351 11.89062234 -8.078125 10.265625 C-8.08217346 9.49476563 -8.08622192 8.72390625 -8.09039307 7.9296875 C-8.03005285 1.09447089 -6.66814725 0.01411035 0 0 Z " fill="#65686A" transform="translate(267.8125,267.734375)"/>
<path d="M0 0 C1.40892517 -0.00574036 1.40892517 -0.00574036 2.84631348 -0.01159668 C4.83000766 -0.01431576 6.8137377 -0.00695484 8.79736328 0.00976562 C11.83317016 0.03117539 14.86661046 0.00996393 17.90234375 -0.015625 C19.83073439 -0.01298172 21.75912356 -0.00785675 23.6875 0 C24.59487915 -0.00809692 25.5022583 -0.01619385 26.43713379 -0.02453613 C32.67259096 0.06821196 32.67259096 0.06821196 35.84033203 2.25366211 C37.4451119 4.68480719 38.293156 6.69493992 39.0546875 9.50390625 C39.32667969 10.47585937 39.59867188 11.4478125 39.87890625 12.44921875 C40.15605469 13.48691406 40.43320313 14.52460938 40.71875 15.59375 C41.32892714 17.78305512 41.94092673 19.97185308 42.5546875 22.16015625 C42.85600586 23.24441895 43.15732422 24.32868164 43.46777344 25.44580078 C44.6675831 29.67188622 45.991901 33.85181386 47.34375 38.03125 C49.74427267 45.52061908 52.00737104 53.04641209 54.21875 60.59375 C54.52941406 61.64820313 54.84007812 62.70265625 55.16015625 63.7890625 C55.58748047 65.25666016 55.58748047 65.25666016 56.0234375 66.75390625 C56.27851074 67.62797119 56.53358398 68.50203613 56.79638672 69.40258789 C57.34375 71.53125 57.34375 71.53125 57.34375 73.53125 C54.70375 73.53125 52.06375 73.53125 49.34375 73.53125 C47.28601778 67.08825793 45.23422443 60.6434068 43.18945312 54.19628906 C42.53962237 52.14849675 41.88749393 50.10143346 41.234375 48.0546875 C38.54660568 39.49626415 36.17680884 30.84825785 33.8046875 22.19799805 C33.5159375 21.15297119 33.2271875 20.10794434 32.9296875 19.03125 C32.6723584 18.0928125 32.4150293 17.154375 32.14990234 16.1875 C31.36053164 13.58654505 30.35322735 11.05494338 29.34375 8.53125 C15.48375 8.20125 1.62375 7.87125 -12.65625 7.53125 C-12.98625 8.52125 -13.31625 9.51125 -13.65625 10.53125 C-13.95850803 7.20641165 -14.09504434 5.20552457 -12.24414062 2.36132812 C-8.32449268 -0.41052857 -4.69222573 -0.04187069 0 0 Z " fill="#F55E20" transform="translate(104.65625,159.46875)"/>
<path d="M0 0 C21.68764717 -0.14011695 43.37521979 -0.245945 65.06322765 -0.31087303 C75.13320731 -0.34182064 85.20290585 -0.38401845 95.27270508 -0.45263672 C104.04882328 -0.51241103 112.82473791 -0.55114257 121.60105401 -0.56453097 C126.24883585 -0.57235812 130.8960353 -0.59077209 135.5436306 -0.63438034 C139.91777761 -0.67509051 144.29110207 -0.68767247 148.66542053 -0.67864609 C150.27108543 -0.68029747 151.87677767 -0.69224266 153.48227882 -0.71523285 C155.67545015 -0.74509914 157.86551823 -0.73791205 160.0587616 -0.7215271 C161.89912129 -0.72982324 161.89912129 -0.72982324 163.77665997 -0.73828697 C168.36751458 0.31322113 169.44441039 2.09875537 172 6 C172 9.21002276 171.70405138 11.02551829 169.8203125 13.6328125 C166.38867404 16.21022336 162.4919527 15.69845587 158.35546875 15.625 C153.55895744 14.73158695 151.36087815 12.39721226 148.04296875 8.9765625 C142.86077259 3.96281249 135.90881926 3.46378648 129 3 C129 2.67 129 2.34 129 2 C86.43 1.67 43.86 1.34 0 1 C0 0.67 0 0.34 0 0 Z " fill="#EB6B35" transform="translate(177,349)"/>
<path d="M0 0 C24.75 0 49.5 0 75 0 C70 7 70 7 66.92002869 7.86869812 C65.77071365 7.86521866 64.62139862 7.8617392 63.43725586 7.8581543 C62.12917465 7.87053635 60.82109344 7.8829184 59.47337341 7.89567566 C58.05384175 7.87319193 56.63433119 7.84933999 55.21484375 7.82421875 C53.75183896 7.82131358 52.28882719 7.82092964 50.82582092 7.82295227 C47.76471807 7.81973976 44.70505476 7.7928247 41.64428711 7.74780273 C37.72419511 7.69108131 33.8058945 7.68294818 29.88545895 7.69121075 C26.86641368 7.69401028 23.84776716 7.67639458 20.82882881 7.65207863 C19.38358792 7.64187928 17.9383017 7.6367711 16.49302483 7.63687706 C14.47299564 7.63290401 12.45308803 7.59968814 10.43334961 7.56518555 C9.28483017 7.55295456 8.13631073 7.54072357 6.95298767 7.52812195 C3.37492751 6.88821 2.14728216 5.89209817 0 3 C0 2.01 0 1.02 0 0 Z " fill="#D84105" transform="translate(218,357)"/>
<path d="M0 0 C-0.66 3.96 -1.32 7.92 -2 12 C-3.32 11.34 -4.64 10.68 -6 10 C-10.62 14.62 -15.24 19.24 -20 24 C-24 22 -24 22 -28 19 C-30.97 21.97 -33.94 24.94 -37 28 C-37.99 27.34 -38.98 26.68 -40 26 C-39.4940998 21.76432576 -37.1064672 19.64065715 -34.1875 16.6875 C-33.31480469 15.78386719 -32.44210937 14.88023437 -31.54296875 13.94921875 C-29 12 -29 12 -26.78515625 12.109375 C-24.75684588 13.12131103 -23.48156719 14.29619774 -22 16 C-18.54798361 14.52278578 -16.35038064 12.56205999 -13.75 9.875 C-12.69039063 8.78832031 -12.69039063 8.78832031 -11.609375 7.6796875 C-11.07828125 7.12539063 -10.5471875 6.57109375 -10 6 C-10.66 4.35 -11.32 2.7 -12 1 C-7.81823821 0.20347395 -4.34015506 0 0 0 Z " fill="#535659" transform="translate(336,280)"/>
<path d="M0 0 C3.31578076 2.66879915 3.89008359 4.31607564 4.5625 8.5 C4 12 4 12 1.9375 14.9375 C-1 17 -1 17 -4.5 17.625 C-8 17 -8 17 -10.9375 15 C-13.79117716 10.84919686 -13.7099846 8.9698922 -13 4 C-10.11972098 -1.0091809 -5.24678994 -1.09749368 0 0 Z " fill="#F3F3EE" transform="translate(204,371)"/>
<path d="M0 0 C2.5 1.4375 2.5 1.4375 4 4 C4.60318106 7.13079693 4.65375511 9.87459178 4 13 C1.30081929 16.35352755 -0.31436636 16.90377072 -4.5625 17.5 C-8.51015385 16.9257958 -9.61640965 16.11700276 -12 13 C-13.44430855 10.11138291 -13.37688506 8.20352299 -13 5 C-9.2217441 -0.43124286 -6.19885712 -0.88555102 0 0 Z " fill="#F3F3EF" transform="translate(314,371)"/>
<path d="M0 0 C6.93 0 13.86 0 21 0 C21 2.64 21 5.28 21 8 C14.07 8 7.14 8 0 8 C0 5.36 0 2.72 0 0 Z " fill="#ECECE8" transform="translate(265,272)"/>
<path d="M0 0 C3 0 3 0 4.5625 1.4375 C5.036875 1.953125 5.51125 2.46875 6 3 C6.66 3.33 7.32 3.66 8 4 C7.67 4.99 7.34 5.98 7 7 C4.36 6.67 1.72 6.34 -1 6 C1.54456151 8.96865509 4.48994665 10.3619751 8 12 C8.125 14.875 8.125 14.875 8 18 C7.34 18.66 6.68 19.32 6 20 C5.01 20 4.02 20 3 20 C3 20.99 3 21.98 3 23 C2.01 23 1.02 23 0 23 C0 22.01 0 21.02 0 20 C-1.65 19.67 -3.3 19.34 -5 19 C-4.67 17.68 -4.34 16.36 -4 15 C-1.36 15.66 1.28 16.32 4 17 C4 16.01 4 15.02 4 14 C2.88625 13.71125 1.7725 13.4225 0.625 13.125 C-3 12 -3 12 -5 10 C-5.25 7.5 -5.25 7.5 -5 5 C-4.34 4.34 -3.68 3.68 -3 3 C-2.01 3 -1.02 3 0 3 C0 2.01 0 1.02 0 0 Z " fill="#54585B" transform="translate(311,267)"/>
<path d="M0 0 C6.6 0 13.2 0 20 0 C20 1.65 20 3.3 20 5 C17.25191738 7.74808262 15.52225466 7.3636712 11.6875 7.4375 C4.45214291 7.34945915 4.45214291 7.34945915 1.6875 4.625 C0 2 0 2 0 0 Z " fill="#D64408" transform="translate(327,357)"/>
<path d="M0 0 C1.084021 0.00523682 2.16804199 0.01047363 3.28491211 0.01586914 C5.03964844 0.02070313 5.03964844 0.02070313 6.82983398 0.02563477 C8.67738281 0.03820312 8.67738281 0.03820312 10.56225586 0.05102539 C12.41560547 0.05779297 12.41560547 0.05779297 14.30639648 0.06469727 C17.37089703 0.07652931 20.43530307 0.09301366 23.49975586 0.11352539 C23.49975586 0.44352539 23.49975586 0.77352539 23.49975586 1.11352539 C21.84975586 1.11352539 20.19975586 1.11352539 18.49975586 1.11352539 C18.49975586 1.77352539 18.49975586 2.43352539 18.49975586 3.11352539 C19.48975586 3.44352539 20.47975586 3.77352539 21.49975586 4.11352539 C11.10475586 4.60852539 11.10475586 4.60852539 0.49975586 5.11352539 C-0.16024414 6.76352539 -0.82024414 8.41352539 -1.50024414 10.11352539 C-3.79429258 6.67245273 -3.7631747 5.1451273 -3.50024414 1.11352539 C-2.50024414 0.11352539 -2.50024414 0.11352539 0 0 Z " fill="#4F5256" transform="translate(264.500244140625,267.886474609375)"/>
<path d="M0 0 C6.93 0 13.86 0 21 0 C21 0.33 21 0.66 21 1 C19.35 1 17.7 1 16 1 C16 3.64 16 6.28 16 9 C17.32 9 18.64 9 20 9 C20 9.66 20 10.32 20 11 C18.02 11.33 16.04 11.66 14 12 C13.67 13.32 13.34 14.64 13 16 C11.95774825 10.91902274 11.92177131 6.16309352 12 1 C8.04 1 4.08 1 0 1 C0 0.67 0 0.34 0 0 Z " fill="#484B4F" transform="translate(265,280)"/>
<path d="M0 0 C1.65 0 3.3 0 5 0 C5 3.96 5 7.92 5 12 C3.35 12 1.7 12 0 12 C0 8.04 0 4.08 0 0 Z " fill="#E8E9E5" transform="translate(281,291)"/>
<path d="M0 0 C6.27 0 12.54 0 19 0 C19 1.32 19 2.64 19 4 C18.030625 3.835 17.06125 3.67 16.0625 3.5 C10.33440494 2.68502713 4.60097534 2.40694607 -1 4 C-0.67 2.68 -0.34 1.36 0 0 Z " fill="#EE5E24" transform="translate(191,350)"/>
<path d="M0 0 C0.33 0 0.66 0 1 0 C1.08086376 2.93804996 1.1404283 5.87388075 1.1875 8.8125 C1.21263672 9.64587891 1.23777344 10.47925781 1.26367188 11.33789062 C1.27333984 12.14033203 1.28300781 12.94277344 1.29296875 13.76953125 C1.3086792 14.50792236 1.32438965 15.24631348 1.34057617 16.00708008 C1 18 1 18 -2 21 C-1.01 10.605 -1.01 10.605 0 0 Z " fill="#E65F26" transform="translate(277,205)"/>
<path d="M0 0 C2.31 0 4.62 0 7 0 C6.34 1.32 5.68 2.64 5 4 C3.35 4 1.7 4 0 4 C0 2.68 0 1.36 0 0 Z " fill="#F94E0D" transform="translate(210,350)"/>
<path d="M0 0 C2.64 0 5.28 0 8 0 C6.35 1.65 4.7 3.3 3 5 C1.5 3.625 1.5 3.625 0 2 C0 1.34 0 0.68 0 0 Z " fill="#D85018" transform="translate(327,357)"/>
<path d="M0 0 C1.32 0 2.64 0 4 0 C4 1.65 4 3.3 4 5 C2.68 5 1.36 5 0 5 C0 3.35 0 1.7 0 0 Z " fill="#F1F1EC" transform="translate(273,291)"/>
<path d="M0 0 C1.32 0 2.64 0 4 0 C4 1.65 4 3.3 4 5 C2.68 5 1.36 5 0 5 C0 3.35 0 1.7 0 0 Z " fill="#F4F4F0" transform="translate(265,291)"/>
<path d="M0 0 C1.65 0 3.3 0 5 0 C5 1.32 5 2.64 5 4 C3.35 4 1.7 4 0 4 C0 2.68 0 1.36 0 0 Z " fill="#E9EAE5" transform="translate(281,284)"/>
<path d="M0 0 C1.32 0.66 2.64 1.32 4 2 C3.67 2.99 3.34 3.98 3 5 C1.68 4.67 0.36 4.34 -1 4 C-0.67 2.68 -0.34 1.36 0 0 Z " fill="#5B5F62" transform="translate(307,282)"/>
<path d="M0 0 C2.475 0.495 2.475 0.495 5 1 C5 1.99 5 2.98 5 4 C3.35 4 1.7 4 0 4 C0 2.68 0 1.36 0 0 Z " fill="#EAEAE8" transform="translate(310,280)"/>
</svg>
