<svg width="38" height="38" viewBox="0 0 38 38" fill="none" xmlns="http://www.w3.org/2000/svg">
<g clip-path="url(#clip0_1_2)">
<rect width="38" height="38" fill="none"/>
<path d="M21 15.5V34L30.9763 29C32.4092 28.1868 35 26 34.5 23C34 20 31 21 31 21C31.6381 20.4477 34.5 19.5 34.5 15C34.5 10.5 29.5 12 29.5 12L21 15.5Z" fill="#EE4D2D"/>
<path d="M3 10V27L10 30.5C10 30.5 17 34 17 29C17 24 12.6675 23.0321 13.5 23C13.5 23 17 24.5 17 20C17 15.5 11 13 11 13L3 10Z" fill="#EE4D2D"/>
<path fill-rule="evenodd" clip-rule="evenodd" d="M1 7V28L19 37V14L1 7ZM3 27V10L11 13C11 13 17 15.5 17 20C17 24.5 13.5 23 13.5 23C12.6675 23.0321 17 24 17 29C17 34 10 30.5 10 30.5L3 27Z" fill="#2D7AEE"/>
<path fill-rule="evenodd" clip-rule="evenodd" d="M19 37L37 28V7L19 14V37ZM21 34V15.5L29.5 12C29.5 12 34.5 10.5 34.5 15C34.5 19.5 31.6381 20.4477 31 21C31 21 34 20 34.5 23C35 26 32.4092 28.1868 30.9763 29L21 34Z" fill="#97EE2D"/>
<path d="M37 7L19 1L1 7L19 14L37 7Z" fill="#EE2D81"/>
<path d="M19 37L37 28V7M19 37L1 28V7M19 37V14M37 7L19 1L1 7M37 7L19 14M1 7L19 14M3 10V27L10 30.5C10 30.5 17 34 17 29C17 24 12.6675 23.0321 13.5 23C13.5 23 17 24.5 17 20C17 15.5 11 13 11 13L3 10ZM21 15.5V34L30.9763 29C32.4092 28.1868 35 26 34.5 23C34 20 31 21 31 21C31.6381 20.4477 34.5 19.5 34.5 15C34.5 10.5 29.5 12 29.5 12L21 15.5Z" stroke="black"/>
</g>
<defs>
<clipPath id="clip0_1_2">
<rect width="38" height="38" fill="none"/>
</clipPath>
</defs>
</svg>
